<svg xmlns="http://www.w3.org/2000/svg" width="205" height="151" fill="none"><path fill="#B1A6FB" d="M116.329 28.136s.005.04.005.062c0 .036 0 .071-.005.107v.053s0 .014-.004.018v.036c0 .07-.009.142-.018.209l-.014.12-.013.07c0 .014-.005.023-.005.036v.018c-.009.054-.023.102-.032.151-.009.045-.018.094-.032.138a.057.057 0 0 1-.009.027c0 .018-.004.03-.009.049-.009.035-.018.075-.036.11a.185.185 0 0 1-.018.068c0 .013-.005.022-.009.035 0 .005-.005.013-.005.018a.258.258 0 0 1-.018.058v.009c-.018.062-.041.11-.068.173a.532.532 0 0 0-.014.044l-.041.107h-.004a3.889 3.889 0 0 1-.15.325h-.004c-.019.031-.037.067-.055.098-.014.03-.032.062-.045.089l-.087.137c-.013.018-.022.036-.031.05-.009.017-.023.035-.037.053a1.999 1.999 0 0 1-.086.133.862.862 0 0 1-.05.08.349.349 0 0 1-.041.049 2.767 2.767 0 0 1-.199.262h-.005a4.277 4.277 0 0 1-.263.307 4.963 4.963 0 0 1-.404.4c-.041.045-.082.08-.123.116a.295.295 0 0 1-.059.049c0 .009-.014.013-.014.018-.009.004-.009.009-.018.017h-.004c-.032.027-.064.058-.1.085a3.336 3.336 0 0 1-.186.147 8.171 8.171 0 0 1-.854.604 9.64 9.64 0 0 1-.435.263c-.454.258-.931.489-1.435.698-.109.049-.227.093-.34.138a18.116 18.116 0 0 1-1.862.596c-.186.044-.377.093-.567.133-.731.165-1.485.289-2.252.369-.386.044-.772.071-1.158.093-3.545.187-7.218-.484-9.941-2.027a19.864 19.864 0 0 1-.318-.187l-.232-.147a9.477 9.477 0 0 1-.744-.524c-.105-.085-.209-.17-.309-.254a5.323 5.323 0 0 1-.331-.298 2.897 2.897 0 0 1-.168-.164c-.027-.031-.06-.063-.091-.094a.154.154 0 0 1-.036-.044h-.005l-.054-.062c-.028-.032-.055-.058-.078-.09a2.086 2.086 0 0 1-.131-.15l-.014-.014a5.232 5.232 0 0 1-.204-.271c-.014-.013-.023-.027-.032-.04a4.962 4.962 0 0 1-.685-1.307c-.01-.023-.014-.04-.023-.063a2.17 2.17 0 0 1-.068-.226l-.014-.045a1.931 1.931 0 0 1-.032-.147.863.863 0 0 1-.027-.142c-.009-.018-.009-.035-.009-.049v-.009c-.004-.013-.004-.022-.004-.035-.019-.09-.028-.183-.037-.271v-.023a2.23 2.23 0 0 1-.013-.244v-.16c0-.103.004-.2.013-.298 0-.08.018-.16.032-.245 0-.018 0-.04.005-.058 0-.008.004-.017.004-.026v-.01c.005-.026.01-.048.014-.075.009-.08.027-.16.05-.24 0 0 0-.009.004-.013.027-.107.06-.214.096-.316a6.416 6.416 0 0 1 .109-.293c.013-.027.027-.054.036-.085l.109-.227a5.54 5.54 0 0 1 .177-.32l.04-.071c.082-.129.169-.258.264-.382.05-.072.104-.143.163-.214a.137.137 0 0 0 .023-.031c.082-.098.168-.196.254-.289.005-.009.01-.013.014-.018a12.49 12.49 0 0 1 .282-.284c.04-.04.081-.076.122-.111a.93.93 0 0 1 .132-.12c.059-.058.127-.112.19-.165.082-.071.164-.134.245-.2a9.98 9.98 0 0 1 .786-.547 9.14 9.14 0 0 1 .436-.262c3.627-2.068 8.956-2.58 13.446-1.548a23.163 23.163 0 0 1 1.094.289h.005a23.614 23.614 0 0 1 .54.174c.177.057.349.12.522.182.173.067.34.133.504.2h.004c.336.142.659.294.976.453a11.22 11.22 0 0 1 1.322.787c.267.187.517.379.744.574.114.098.222.196.327.298a6.837 6.837 0 0 1 .304.307c.05.049.095.102.136.155.046.05.086.098.132.152v.004c.086.102.163.205.24.311.019.032.037.058.055.085a3.623 3.623 0 0 1 .295.471c.018.031.036.063.05.094.005 0 .005.004.005.004.167.325.299.658.385.992.023.084.041.173.055.258l.027.164.014.102c.004.023.004.04.004.063 0 .026 0 .057.009.08v.022a.435.435 0 0 1 .009.08v.009c.005.067.005.129.005.195l.004.005ZM96.023 40.982l-4.557 2.592-8.853 5.038-1.312.747-27.71 15.776c-.363.205-.949.205-1.312 0l-13.365-7.559s-.004 0-.004-.004c0 0-.023-.013-.032-.022a.487.487 0 0 1-.118-.098c-.01 0-.018-.013-.023-.022l-.009-.01s-.004-.004-.004-.008c0-.005 0-.009-.01-.013-.008-.01-.013-.018-.013-.023a.24.24 0 0 1-.036-.066c0-.01-.005-.018-.005-.023v-.008h-.004s-.005-.018-.005-.027c-.005-.018-.005-.036-.005-.05 0-.133.091-.266.268-.368l42.442-24.158c.363-.205.949-.205 1.312 0l8.82 4.989 4.54 2.57c.036.022.063.04.09.062.01.01.019.014.028.023 0 .004.014.008.018.013a.215.215 0 0 1 .055.058l.013.017c.005.005.005.01.01.014a.337.337 0 0 1 .05.115.056.056 0 0 1 .004.027.021.021 0 0 1 0 .031v.062c-.005.018-.005.036-.014.05a.384.384 0 0 1-.045.097.425.425 0 0 1-.064.067c-.004.009-.013.013-.022.022-.01.009-.014.013-.028.022h-.004a.382.382 0 0 1-.087.063h-.004l-.005.004Zm42.61 26.928c0 .16-.009.303-.018.454 0 .017-.004.035-.004.053a4.034 4.034 0 0 1-.023.218c-.009.089-.023.178-.036.271-.019.107-.037.218-.059.325l-.028.142-.041.165a2.437 2.437 0 0 1-.05.2c-.004.009-.004.017-.009.026-.031.116-.068.232-.104.352l-.027.08-.023.062c0 .004-.004.009-.004.018-.046.115-.087.235-.137.351a6.934 6.934 0 0 1-.322.703c-.095.19-.2.377-.318.569a9.25 9.25 0 0 1-.245.391s-.004 0-.009.009c-.136.209-.286.418-.449.631a12.56 12.56 0 0 1-.713.845c-.023.022-.041.045-.064.071a4.305 4.305 0 0 1-.199.21c-.087.088-.173.182-.264.27l-.199.196c-.064.062-.128.125-.196.187-.077.067-.15.138-.231.209a7.237 7.237 0 0 1-.191.169c-.014.013-.027.027-.041.035-.013.014-.027.023-.041.036-.086.076-.177.151-.267.227-.132.106-.264.218-.404.324-.1.08-.2.16-.305.236-.204.16-.417.316-.64.471-.29.21-.594.414-.912.618-.068.045-.136.09-.204.13a22.33 22.33 0 0 1-.641.395c-.217.133-.44.267-.671.396l-13.07 7.439-2.066 1.174-.086.049-.881.502-.227.13-1.861 1.057h-.004l-.908.52-5.689 3.238c-1.602.911-4.24.911-5.851 0l-3.164-1.788-3.165-1.792-2.474-1.396-.004-.004a.094.094 0 0 1-.027-.018 1.054 1.054 0 0 1-.118-.071 1.21 1.21 0 0 1-.1-.063c-.014-.008-.023-.017-.037-.026a.84.84 0 0 1-.127-.094 2.323 2.323 0 0 1-.504-.507 1.517 1.517 0 0 1-.218-.418c-.004-.008-.009-.013-.009-.022a1.067 1.067 0 0 1-.036-.11c-.01-.032-.014-.068-.018-.099l-.005-.009c-.009-.075-.018-.15-.018-.226 0-.085.01-.17.023-.254v-.013a.704.704 0 0 1 .022-.093 1.602 1.602 0 0 1 .25-.52h.005c.009-.019.022-.032.036-.05l.04-.053a1.96 1.96 0 0 1 .187-.205c.023-.022.04-.04.068-.062.023-.022.046-.04.068-.058a3.349 3.349 0 0 1 .495-.342l5.688-3.242 2.774-1.574 2.933-1.671 2.928-1.668 6.092-3.468a8.16 8.16 0 0 0 .704-.445l.204-.147h.004c.041-.03.078-.062.118-.093a3.53 3.53 0 0 0 .214-.169c.004-.009.013-.013.018-.018l.082-.066c.081-.072.159-.147.236-.218.036-.032.072-.067.104-.103.009-.008.014-.017.023-.026.041-.04.082-.08.122-.125.019-.022.037-.044.059-.067a6.363 6.363 0 0 0 .364-.449c.063-.084.122-.173.177-.262l.15-.267s0-.004.004-.009v-.013c.009-.018.018-.04.032-.058l.054-.115h.005s.004-.018.009-.027c0-.013.009-.027.014-.04.018-.036.031-.071.045-.107a.272.272 0 0 0 .027-.075v-.01l.009-.004c0-.009 0-.013.005-.013 0-.004.004-.009.004-.013.009-.023.018-.05.028-.072.059-.182.104-.364.136-.546a2.06 2.06 0 0 0 .027-.218c.005-.023.005-.05.009-.072v-.035a2.01 2.01 0 0 0 .014-.236v-.009c0-.106 0-.213-.018-.32a2.798 2.798 0 0 0-.05-.329s0-.013-.005-.018a1.27 1.27 0 0 0-.05-.222 1.621 1.621 0 0 0-.045-.165l-.041-.11c0-.01 0-.014-.005-.023a.03.03 0 0 0-.009-.018c-.009-.026-.013-.049-.027-.07a1.085 1.085 0 0 0-.05-.125l-.014-.031c-.004-.01-.004-.014-.009-.023-.027-.057-.054-.12-.086-.182-.009-.013-.013-.027-.023-.04a3.099 3.099 0 0 0-.149-.267l-.023-.035a3.644 3.644 0 0 0-.118-.178c-.014-.018-.027-.04-.041-.058-.027-.036-.05-.071-.077-.102l-.041-.054s-.014-.017-.018-.026c-.023-.031-.046-.058-.068-.085 0 0-.018-.018-.023-.027-.004-.008-.014-.013-.023-.022a.191.191 0 0 0-.041-.053 3.93 3.93 0 0 0-.14-.156l-.014-.013-.032-.036a9.809 9.809 0 0 0-.204-.204 5.47 5.47 0 0 0-.3-.271s0-.005-.009-.01c-.004 0-.004-.004-.009-.004a4.192 4.192 0 0 0-.313-.244s0-.005-.004-.005a4.552 4.552 0 0 0-.291-.213 17.53 17.53 0 0 0-.313-.21c-.118-.07-.241-.146-.368-.217a18.129 18.129 0 0 0-.322-.173 5.607 5.607 0 0 0-.291-.143c-.113-.053-.231-.11-.349-.16a4.989 4.989 0 0 0-.359-.151 13.323 13.323 0 0 0-1.117-.396c-.022-.009-.05-.013-.072-.022a10.395 10.395 0 0 0-.536-.147 12.677 12.677 0 0 0-.558-.133l-.064-.013-.068-.014a5.585 5.585 0 0 0-.245-.049 12.011 12.011 0 0 0-.799-.133 6.5 6.5 0 0 0-.409-.053 10.497 10.497 0 0 0-.408-.045 12.78 12.78 0 0 0-.409-.035h-.104a9.856 9.856 0 0 0-.509-.027 13.285 13.285 0 0 0-1.203-.01c-.131 0-.263 0-.39.014-.023 0-.041.005-.064.005h-.095c-.014 0-.032 0-.046.004a5.641 5.641 0 0 0-.394.027c-.041 0-.082 0-.123.009-.036.004-.068.004-.104.013a13.69 13.69 0 0 0-.572.062c-.014 0-.032.005-.046.005a12.066 12.066 0 0 0-.69.102c-.091.018-.181.031-.272.053a8.322 8.322 0 0 0-.6.125c-.027 0-.054.013-.081.018-.032.009-.064.013-.091.022-.159.04-.318.08-.472.124-1.003.276-1.939.65-2.77 1.121l-.585.333-.268.152h-.004l-3.219 1.836-6.278 3.575-10.06 5.723a4.617 4.617 0 0 1-.999.418 5.833 5.833 0 0 1-1.044.209l-.086.013a2.727 2.727 0 0 1-.191.018h-.01a4.83 4.83 0 0 1-.253.018 5.74 5.74 0 0 1-.677 0 1.35 1.35 0 0 1-.19-.014h-.082a.457.457 0 0 1-.11-.013h-.058a.361.361 0 0 1-.1-.013h-.005s-.013.004-.022 0c-.018 0-.037 0-.05-.01a1.44 1.44 0 0 1-.2-.026h-.027a5.83 5.83 0 0 1-.745-.169 4.898 4.898 0 0 1-1.003-.418l-1.616-.916-7.19-4.064s-.019-.009-.028-.018a2.333 2.333 0 0 1-.209-.129c-.063-.04-.122-.084-.177-.124-.04-.031-.082-.063-.118-.098-.005-.005-.01-.009-.014-.009l-.04-.04a.613.613 0 0 1-.078-.076.137.137 0 0 1-.036-.035 1.723 1.723 0 0 1-.254-.316c-.027-.04-.05-.08-.073-.12a1.342 1.342 0 0 1-.109-.249.517.517 0 0 1-.032-.111c-.009-.018-.013-.04-.018-.058a.153.153 0 0 1-.009-.044v-.028a.812.812 0 0 1-.018-.101v-.01a.356.356 0 0 1 0-.097v-.009c0-.027 0-.049.005-.075v-.067c.004-.027.004-.054.013-.08a.31.31 0 0 1 .01-.067l.04-.147c.018-.044.036-.093.06-.142a.795.795 0 0 1 .076-.151c0-.013.014-.027.023-.04.04-.076.09-.142.15-.214a1.95 1.95 0 0 1 .186-.204l.068-.062c.023-.018.045-.04.068-.058.036-.031.077-.063.118-.094.023-.017.046-.035.073-.053a.722.722 0 0 1 .068-.049c.018-.013.036-.026.054-.035.06-.04.118-.076.182-.112l19.561-11.134 1.312-.747 8.848-5.038 4.558-2.592h.01l.267-.156 3.355-1.912c.086-.049.172-.093.263-.133a.408.408 0 0 1 .077-.036.668.668 0 0 0 .073-.03c.05-.027.1-.05.154-.067.027-.014.055-.023.082-.036.005 0 .014 0 .023-.009.104-.035.213-.076.327-.107a6.65 6.65 0 0 1 .885-.186c.1-.018.204-.032.308-.04.059-.01.118-.014.182-.018h.009c.077-.009.15-.014.227-.014.109-.008.213-.008.318-.008 1.058 0 2.12.23 2.928.684l3.001 1.699 5.801 3.282a2.966 2.966 0 0 1 .641.466c.036.036.068.067.099.103.014.017.028.03.046.049l.109.137c.004.005.009.014.018.023.032.049.068.102.1.155.009.022.022.04.032.063l.027.057c.013.027.027.054.036.076l.027.08s.005.004.005.009a.74.74 0 0 1 .041.142c.013.053.022.098.027.147v.013s.005.023.005.036c.004.04.004.075.004.115v.01a.818.818 0 0 1-.014.155v.009s-.004.035-.004.049c-.014.057-.023.11-.041.169-.009.035-.023.066-.032.098l-.041.093a1.28 1.28 0 0 1-.081.155c-.028.045-.055.094-.087.138-.013.018-.022.036-.036.05-.014.022-.032.04-.045.057a1.552 1.552 0 0 1-.136.151c-.028.031-.059.058-.091.09a2.689 2.689 0 0 1-.309.249c-.086.061-.182.12-.281.177l-.028.018-1.838 1.045c.259-.018.513-.036.772-.05.113-.004.231-.013.345-.017h.009c.195-.009.39-.013.585-.018.041-.004.082-.004.123-.004h.045c.186 0 .377-.009.563-.009h.295c.105 0 .214 0 .318.004.25 0 .504 0 .758.014h.027c.177.004.359.009.541.017h.027c.036 0 .072.005.109.005.091 0 .177.009.268.018.045 0 .09 0 .136.004h.113c.028.005.055.005.082.01.318.017.636.04.949.066l.136.013c.227.018.454.045.681.067.054.004.104.013.159.018.177.017.358.04.535.066.05.005.1.01.15.018.146.014.286.036.432.053.018.005.04.005.059.01.109.017.222.035.331.048.014.005.032.005.045.01.014 0 .023.004.037.004.09.013.186.026.281.044.046.005.095.013.145.022.032.005.059.014.091.018.145.022.286.045.431.071.014.005.032.005.046.01.073.013.145.026.213.04.118.021.232.04.345.066l.132.026c.104.018.209.04.313.063l.068.013c.05.009.096.022.146.031l.113.027c.059.013.118.022.177.04.082.013.163.031.241.053.036.005.072.014.109.023a27.732 27.732 0 0 1 .935.236c.091.021.181.048.272.07.059.018.114.032.168.05.141.035.282.075.422.12a.09.09 0 0 1 .046.013c.154.044.313.089.467.138.277.084.55.169.822.262.005 0 .009.004.014.004.05.014.095.031.14.05.05.017.1.035.146.053.095.03.19.062.286.097.009.005.018.005.027.01.05.017.095.035.141.053.04.013.081.026.118.044l.077.027c.086.03.168.062.249.093.046.018.091.036.137.058a.672.672 0 0 1 .081.031l.087.031.104.04c.032.014.068.027.1.045a.274.274 0 0 1 .054.022c.028.009.055.022.082.031.141.053.277.111.418.174.013.008.032.013.045.022.114.044.227.093.341.146.045.018.086.04.131.058.136.063.273.125.404.187.014.009.032.013.046.022l.136.067c.154.071.309.147.463.222a11.436 11.436 0 0 0 .25.134c.258.129.508.27.758.409 0 .004.013.009.018.009.254.146.499.293.74.44.027.018.054.031.077.049.35.218.681.44 1.003.671.109.076.214.156.323.231l.009.014h.004c.109.08.218.164.323.249.013.009.027.018.036.026.045.036.091.072.136.112.15.12.3.244.445.373.05.04.095.08.141.125l.145.129v.008h.009c.091.085.186.174.277.267.045.04.091.085.136.134a12.561 12.561 0 0 1 .391.4l.004.009h.005l.013.017c.009.005.009.014.014.018.014.01.018.018.027.027a13.494 13.494 0 0 1 .654.778l.204.28s.005.005.005.01h.004c.041.057.086.115.123.177a1.275 1.275 0 0 1 .077.107c.063.098.123.195.182.289a.144.144 0 0 1 .022.04c.086.138.164.28.236.418l.023.035.014.027c.068.125.131.249.19.378l.046.098c.031.066.063.138.09.209l.005.004c.041.098.082.2.118.302l.005.005.068.2c.013.036.022.071.036.107l.054.178a5.336 5.336 0 0 1 .082.289.05.05 0 0 1 .005.026c.027.085.045.174.063.263.018.08.037.16.05.244.009.05.018.102.023.151a5.939 5.939 0 0 1 .077.743c0 .107.009.213.009.32v.058l.009-.018Z"/><path fill="#1F2134" d="M138.633 67.915v-.063c0-.106-.005-.213-.009-.32a6.208 6.208 0 0 0-.059-.636c-.005-.035-.009-.07-.019-.106a2.226 2.226 0 0 0-.136-.658c0-.01 0-.018-.004-.027 0-.009-.005-.018-.005-.022-.023-.09-.05-.178-.077-.267l-.054-.178c-.014-.036-.023-.071-.037-.107l-.068-.2h-.004a6.007 6.007 0 0 0-.118-.307h-.005a2.22 2.22 0 0 0-.091-.213c-.013-.031-.032-.067-.045-.098a5.968 5.968 0 0 0-.191-.378l-.013-.026-.023-.036a6.816 6.816 0 0 0-.236-.418.205.205 0 0 0-.023-.04c-.059-.093-.118-.191-.182-.285h-.004v-.009a1.293 1.293 0 0 0-.073-.102c-.036-.062-.081-.12-.122-.178h-.005s0-.004-.004-.009l-.205-.28a14.495 14.495 0 0 0-.653-.778c-.009-.009-.014-.018-.028-.026-.004-.005-.004-.014-.013-.018-.005-.005-.009-.014-.014-.018h-.004s0-.005-.005-.009a15.613 15.613 0 0 0-.254-.267 1.92 1.92 0 0 0-.136-.133 2.14 2.14 0 0 0-.136-.134c-.091-.093-.187-.182-.277-.266v-.01a4.26 4.26 0 0 1-.15-.128 1.96 1.96 0 0 0-.141-.125 11.132 11.132 0 0 0-.445-.373 2.652 2.652 0 0 0-.136-.111c-.009-.01-.023-.018-.036-.027a9.356 9.356 0 0 0-.323-.25h-.004l-.009-.012c-.109-.076-.214-.156-.323-.232a18.184 18.184 0 0 0-1.003-.671c-.023-.018-.05-.031-.077-.049a37.668 37.668 0 0 0-.758-.45c-.25-.137-.5-.28-.758-.408-.005-.005-.009-.005-.014-.009-.077-.04-.154-.08-.236-.125a22.684 22.684 0 0 0-.463-.222l-.136-.067s-.032-.013-.046-.022a26.223 26.223 0 0 0-.404-.187c-.045-.017-.086-.04-.131-.057a5.684 5.684 0 0 0-.341-.147c-.013-.009-.032-.013-.045-.022a8.307 8.307 0 0 0-.418-.174c-.027-.009-.054-.022-.082-.03a.274.274 0 0 0-.054-.023c-.032-.018-.068-.031-.1-.045l-.104-.04c-.028-.008-.059-.022-.087-.03-.027-.014-.054-.023-.081-.032a1.895 1.895 0 0 0-.136-.058 15.894 15.894 0 0 0-.445-.164c-.046-.018-.091-.036-.141-.053-.009-.005-.018-.005-.027-.01-.096-.035-.191-.066-.286-.097l-.146-.054c-.045-.017-.09-.035-.14-.049-.005 0-.009-.004-.014-.004a25.06 25.06 0 0 0-.822-.262c-.154-.05-.313-.094-.467-.138a.091.091 0 0 0-.046-.014 7.186 7.186 0 0 0-.422-.12c-.054-.017-.109-.03-.168-.048-.091-.023-.181-.05-.272-.072a27.732 27.732 0 0 0-.935-.235.884.884 0 0 0-.109-.023 2.101 2.101 0 0 0-.241-.053c-.059-.018-.118-.026-.177-.04a4.883 4.883 0 0 0-.113-.027c-.05-.008-.096-.022-.146-.03l-.068-.014a7.693 7.693 0 0 0-.313-.062 5.563 5.563 0 0 0-.132-.027c-.113-.027-.227-.044-.345-.067l-.213-.04c-.014-.004-.032-.004-.045-.009a14.717 14.717 0 0 0-.432-.07c-.031-.005-.059-.014-.09-.018a1.89 1.89 0 0 0-.146-.023c-.095-.017-.19-.03-.281-.044-.014 0-.023-.005-.037-.005-.013-.004-.031-.004-.045-.009a8.773 8.773 0 0 1-.331-.048c-.018-.005-.041-.005-.059-.01-.146-.017-.286-.04-.432-.053a1.51 1.51 0 0 0-.149-.017 11.013 11.013 0 0 0-.536-.067c-.055-.005-.105-.014-.159-.018-.227-.022-.454-.049-.681-.067l-.136-.013a32.691 32.691 0 0 0-.949-.067c-.027-.004-.054-.004-.082-.009h-.113c-.046-.004-.091-.004-.136-.004a5.356 5.356 0 0 0-.268-.018c-.036 0-.073-.004-.109-.004h-.027c-.182-.01-.364-.014-.541-.018h-.027a21.95 21.95 0 0 0-.758-.013c-.104-.005-.213-.005-.318-.005h-.295c-.186 0-.377.005-.563.01h-.045c-.041 0-.082 0-.123.003-.195.005-.39.01-.585.018h-.009c-.114.005-.232.014-.345.018-.259.013-.513.031-.772.049l1.838-1.045.028-.018a3.266 3.266 0 0 0 .495-.342c.031-.027.068-.058.095-.085.032-.03.063-.057.091-.089.05-.048.095-.097.136-.15.013-.018.032-.036.045-.058.014-.014.023-.032.037-.05.031-.044.059-.093.086-.137a1.3 1.3 0 0 0 .082-.156l.04-.093c.009-.031.023-.063.032-.098.018-.058.027-.111.041-.17 0-.012.005-.03.005-.048v-.009a.907.907 0 0 0 .013-.156v-.008c0-.04 0-.076-.004-.116 0-.013-.005-.022-.005-.036v-.008a.89.89 0 0 0-.027-.152.74.74 0 0 0-.041-.142l-.005-.009-.027-.08a.904.904 0 0 0-.036-.075l-.027-.058c-.009-.023-.023-.04-.032-.063-.032-.053-.068-.106-.1-.155-.009-.009-.014-.018-.018-.022-.036-.05-.073-.094-.109-.138-.018-.018-.032-.031-.046-.05-.031-.035-.063-.066-.099-.101a2.534 2.534 0 0 0-.227-.196 3.764 3.764 0 0 0-.413-.271l-5.802-3.282-3.001-1.698c-.808-.454-1.87-.685-2.928-.685-.104 0-.209 0-.318.009-.077 0-.15 0-.227.013h-.009a2.312 2.312 0 0 0-.181.018 3.42 3.42 0 0 0-.309.04 6.65 6.65 0 0 0-.885.187c-.114.03-.223.07-.327.106a.072.072 0 0 1-.023.01c-.027.013-.054.022-.082.035a.964.964 0 0 0-.154.066c-.027.014-.05.023-.073.032a.408.408 0 0 0-.077.035c-.09.04-.177.085-.263.134L96.282 47.5l-.268.15h-.009l-4.558 2.598-8.847 5.037-1.313.747-19.56 11.135a2.423 2.423 0 0 0-.182.11c-.019.01-.037.023-.055.036-.023.014-.045.032-.068.05-.027.017-.05.035-.073.053-.04.03-.081.062-.118.093-.023.018-.045.04-.068.058l-.068.062a1.951 1.951 0 0 0-.186.205 1.305 1.305 0 0 0-.173.253.795.795 0 0 0-.077.151c-.023.05-.04.098-.059.142l-.04.147a.333.333 0 0 0-.01.067c-.009.027-.009.053-.013.08v.067c-.005.026-.005.049-.005.075v.01a.357.357 0 0 0 0 .097v.009c.005.035.01.067.018.102v.028c0 .013.005.03.01.044.004.018.008.04.017.058a.517.517 0 0 0 .032.111 1.703 1.703 0 0 0 .182.369 1.723 1.723 0 0 0 .254.316c.01.013.023.027.036.036a.62.62 0 0 0 .078.075.26.26 0 0 0 .04.036l.014.013c.036.036.077.067.118.098.055.04.114.084.177.124a2.245 2.245 0 0 0 .236.147l7.191 4.064 1.616.916a4.873 4.873 0 0 0 1.003.418c.241.071.49.13.745.17h.027c.064.013.132.021.2.026.014.009.032.009.05.009.009.004.018.004.023 0h.004a.361.361 0 0 0 .1.013h.059a.457.457 0 0 0 .109.013h.082c.063.01.127.014.19.014.227.013.45.013.677 0a4.94 4.94 0 0 0 .254-.018h.01c.063-.004.126-.009.19-.018l.086-.013a5.833 5.833 0 0 0 1.044-.209 4.617 4.617 0 0 0 .999-.418l10.06-5.723 6.278-3.575 3.219-1.832h.004l.268-.155.586-.334c.83-.471 1.766-.845 2.769-1.12.154-.045.313-.085.472-.125.027-.009.059-.013.091-.022.027-.005.054-.014.082-.018a9.207 9.207 0 0 1 .599-.124c.091-.023.181-.036.272-.054.186-.03.372-.062.559-.084.045-.01.09-.014.131-.018.014 0 .032-.005.046-.005.19-.026.381-.044.572-.062.036-.009.068-.009.104-.013.041-.005.082-.009.123-.009a5.63 5.63 0 0 1 .395-.027c.013-.004.031-.004.045-.004h.095c.023 0 .041-.005.064-.005.127-.008.259-.013.39-.013.159-.009.314-.009.472-.009.246 0 .491.005.731.018.168.005.341.013.509.027h.104c.136.009.273.022.409.035.14.014.277.027.408.045a6.5 6.5 0 0 1 .409.053c.268.036.536.08.799.134.082.013.163.03.245.048l.068.014.064.013c.186.04.372.085.558.133.182.045.359.094.536.147.022.01.05.014.072.022a13.323 13.323 0 0 1 1.117.396c.123.045.241.098.359.151.118.05.236.107.349.16.1.045.195.094.291.143.109.057.218.115.322.173.127.071.25.147.368.218.109.071.209.138.313.209.1.067.195.138.291.209h.004v.009c.109.076.214.16.313.245.005 0 .005.004.009.004.005.004.005.009.01.009.104.089.204.178.299.271a8.758 8.758 0 0 1 .236.24l.014.013c.05.054.095.103.141.156a.207.207 0 0 1 .04.053c.01.01.019.014.023.023.005.009.014.013.023.022l.068.089c.004.009.014.018.018.026l.041.054c.027.031.05.067.077.102.014.018.027.04.041.058.041.058.082.12.118.178l.023.035a4.354 4.354 0 0 1 .172.307c.032.063.059.125.086.182l.01.023.013.03c.018.04.037.08.05.12.014.028.018.05.027.072 0 0 .009.018.009.022a.037.037 0 0 1 .005.023l.041.11c.018.054.032.107.045.165.023.076.041.147.05.223a2.878 2.878 0 0 1 .055.342c.013.111.018.218.018.325v.008c0 .08 0 .16-.014.236v.036c-.004.022-.004.049-.009.07a1.798 1.798 0 0 1-.027.219 4.045 4.045 0 0 1-.136.547c-.009.022-.018.048-.028.07 0 .005-.004.01-.004.014-.005 0-.005 0-.005.013 0 0-.004.005-.009.005v.009a.208.208 0 0 1-.027.07.896.896 0 0 1-.045.112c0 .013-.014.027-.014.04-.005.009-.009.013-.009.022h-.005c-.018.045-.036.08-.054.12-.014.018-.023.04-.032.058v.013l-.004.01-.15.266a3.652 3.652 0 0 1-.177.263c-.064.088-.132.173-.2.258a2.17 2.17 0 0 1-.163.19 3.302 3.302 0 0 1-.182.191c-.009.01-.014.019-.023.028a1.068 1.068 0 0 1-.104.102c-.077.071-.154.147-.236.218l-.082.066s-.014.01-.018.018a4.155 4.155 0 0 1-.213.17c-.041.03-.078.061-.118.088l-.005.004c-.068.054-.136.103-.204.152a8.16 8.16 0 0 1-.704.444l-6.092 3.469-2.928 1.667-2.933 1.672-2.774 1.574-5.688 3.242a3.324 3.324 0 0 0-.495.342c-.022.018-.045.036-.068.058-.027.022-.045.04-.068.062a1.95 1.95 0 0 0-.186.205l-.04.053s-.028.031-.037.049h-.005a1.696 1.696 0 0 0-.25.525.709.709 0 0 0-.022.093v.013a1.594 1.594 0 0 0-.023.254c0 .075.01.15.018.226l.005.01c0 .03.009.066.018.097.01.036.023.076.036.111 0 .01.005.014.01.023a1.517 1.517 0 0 0 .217.418c.127.177.296.35.504.507a.84.84 0 0 0 .127.093c.014.009.023.018.037.026.032.023.068.045.1.063a.917.917 0 0 0 .118.07c.009.01.018.014.027.019h.004l2.474 1.4 3.165 1.792 3.164 1.788c1.611.911 4.249.911 5.851 0l5.689-3.237.908-.516h.004l1.861-1.063.227-.129.881-.502.086-.05 2.066-1.173 13.07-7.439c.231-.129.454-.262.672-.396.217-.129.431-.262.64-.395.068-.04.136-.085.204-.13.318-.204.622-.409.912-.618.223-.155.436-.31.64-.47.105-.076.205-.156.305-.236.14-.107.272-.218.404-.325.09-.076.181-.151.267-.227.014-.013.028-.022.041-.035a.247.247 0 0 0 .041-.036c.064-.053.127-.111.191-.169.082-.071.154-.142.231-.209a7.02 7.02 0 0 0 .196-.187l.199-.195c.091-.09.177-.183.264-.272.072-.07.136-.138.199-.209.023-.026.041-.049.064-.07.086-.094.172-.192.254-.285a10.48 10.48 0 0 0 .908-1.192c.005-.004.009-.004.009-.009a9.25 9.25 0 0 0 .245-.391 7.06 7.06 0 0 0 .318-.57 6.936 6.936 0 0 0 .322-.703c.05-.114.091-.235.137-.35 0-.01.004-.013.004-.018.009-.022.014-.044.023-.062l.027-.08c.036-.12.073-.236.105-.352.004-.008.004-.017.009-.026.018-.067.036-.134.05-.2l.04-.165.028-.142c.022-.107.04-.218.059-.325.013-.093.027-.182.036-.27.009-.072.018-.148.023-.219 0-.018.004-.035.004-.053.009-.151.018-.294.018-.45l-.013.01Zm52.129-27.689c8.607 4.865 12.906 11.254 12.888 17.635 0 .182-.005.37-.014.551-.004.12-.009.24-.022.36-.009.116-.014.236-.028.352a7.62 7.62 0 0 1-.063.56c-.018.165-.046.334-.073.498-.018.116-.041.236-.063.351-.005.014-.005.032-.009.045-.028.142-.059.28-.091.422 0 .005 0 .014-.005.023-.068.306-.15.613-.24.924a12.27 12.27 0 0 1-.209.64 9.04 9.04 0 0 1-.15.427 16.637 16.637 0 0 1-1.158 2.45 10.6 10.6 0 0 1-.304.512 19.772 19.772 0 0 1-1.72 2.388c-.241.293-.495.587-.763.871a19.198 19.198 0 0 1-.826.858c-.431.427-.885.85-1.362 1.259a39.47 39.47 0 0 1-.472.4c-.005.009-.014.013-.018.018-.164.133-.332.267-.5.4a22.453 22.453 0 0 1-1.053.8 34.087 34.087 0 0 1-2.302 1.543 36.93 36.93 0 0 1-1.243.743l-57.927 32.971c-.467.267-.944.525-1.43.774-.163.088-.331.173-.499.257-.109.054-.218.112-.327.165l-.327.16h-.004c-.236.116-.477.227-.718.338-.286.133-.572.267-.862.391-.236.107-.472.209-.713.307a47.849 47.849 0 0 1-2.183.867c-.223.08-.45.165-.677.245a62.18 62.18 0 0 1-.921.315c-.309.107-.622.209-.936.307l-.122.04c-.273.085-.545.169-.822.249-.313.098-.631.187-.953.276-.318.093-.64.178-.963.262-.24.067-.485.129-.73.187-.377.098-.759.191-1.14.276-.263.062-.522.12-.785.178-.232.053-.468.102-.704.146-.222.049-.449.098-.676.138-.273.058-.545.107-.822.16-.422.076-.849.151-1.276.223-.277.044-.549.088-.826.129-.186.031-.372.057-.558.084-.241.036-.481.067-.727.102-.045 0-.09.014-.136.018l-.209.027-.109.013h-.013c-.132.018-.259.036-.391.049-.408.053-.821.098-1.234.142-.409.045-.822.085-1.235.12l-.795.067a72.83 72.83 0 0 1-1.697.116l-.831.04a62.356 62.356 0 0 1-1.762.057 16.49 16.49 0 0 1-.667.014c-.327.004-.654.009-.981.009-.372 0-.744 0-1.116-.009-.209 0-.418-.005-.622-.009h-.159c-.164-.005-.327-.005-.486-.013h-.145a55.85 55.85 0 0 1-1.416-.058c-.45-.022-.904-.049-1.353-.08-.05 0-.091-.005-.141-.009h-.01c-.09-.005-.176-.014-.267-.022-.159-.009-.318-.023-.481-.036-.16-.009-.318-.027-.477-.04a22.996 22.996 0 0 1-.495-.044c-.113-.009-.231-.023-.345-.032l-.894-.093a49.131 49.131 0 0 1-1.398-.169h-.018a50.234 50.234 0 0 1-1.226-.169c-.068-.009-.14-.022-.209-.031-.009 0-.018 0-.027-.004-.4-.058-.8-.121-1.194-.187-.036-.005-.068-.014-.105-.018-.435-.076-.871-.151-1.302-.236-.01 0-.023-.004-.032-.004a34.609 34.609 0 0 1-1.171-.231l-.196-.04c-.277-.058-.553-.12-.83-.183-.205-.044-.413-.093-.613-.138-.041-.008-.077-.017-.118-.026l-.709-.174c-.285-.071-.572-.142-.857-.217-.028-.005-.05-.014-.078-.023-.313-.08-.626-.164-.94-.253a78.197 78.197 0 0 1-.912-.263c-.014-.004-.032-.008-.045-.013a49.7 49.7 0 0 1-1.58-.498 45.551 45.551 0 0 1-1.62-.556l-.037-.013c-.045-.018-.09-.031-.136-.049l-.01-.004c-.18-.067-.358-.129-.53-.196-.214-.08-.423-.16-.631-.245a16.17 16.17 0 0 1-.65-.262c-.095-.036-.19-.076-.286-.116-.095-.04-.195-.08-.286-.12-.013 0-.022-.008-.036-.013-.054-.022-.1-.044-.154-.067h-.005a3.09 3.09 0 0 1-.168-.075c-.181-.076-.358-.156-.535-.236a31.298 31.298 0 0 1-.963-.44 20.102 20.102 0 0 1-.704-.338 36.56 36.56 0 0 1-1.03-.525c-.005-.004-.014-.004-.018-.009a3.537 3.537 0 0 1-.19-.102 5.548 5.548 0 0 1-.291-.156c-.246-.128-.49-.262-.731-.4L12.993 75.256a45.883 45.883 0 0 1-1.558-.93 35.608 35.608 0 0 1-2.823-1.951 26.354 26.354 0 0 1-1.258-1.023 25.811 25.811 0 0 1-3.613-3.77 22.1 22.1 0 0 1-.413-.561 18.524 18.524 0 0 1-1.998-3.513 16.574 16.574 0 0 1-.2-.502 14.622 14.622 0 0 1-1.025-5.34c-.005-4.34 1.992-8.68 5.992-12.535.55-.525 1.13-1.04 1.748-1.548a34.572 34.572 0 0 1 3.409-2.436 44.586 44.586 0 0 1 1.534-.92L70.715 7.254c16.992-9.671 44.638-9.676 61.744 0l58.303 32.971Zm-74.428-12.028s0-.044-.005-.062c0-.067 0-.129-.004-.196v-.009c0-.026-.005-.053-.009-.08v-.022l-.009-.08c0-.022 0-.04-.005-.062l-.014-.102-.027-.16a2.466 2.466 0 0 0-.054-.263 4.809 4.809 0 0 0-.386-.991s0-.005-.005-.005a.702.702 0 0 0-.05-.093c-.04-.08-.086-.156-.131-.231a2.83 2.83 0 0 0-.164-.24l-.054-.08a4.19 4.19 0 0 0-.241-.316V25.2c-.045-.053-.086-.102-.131-.15a1.485 1.485 0 0 0-.137-.157s0-.004-.004-.004a5.932 5.932 0 0 0-.3-.302 6.532 6.532 0 0 0-.327-.298 9.194 9.194 0 0 0-.744-.574 11.25 11.25 0 0 0-1.321-.787 13.99 13.99 0 0 0-.976-.449h-.005a12.436 12.436 0 0 0-.504-.205 17.563 17.563 0 0 0-.522-.182 24.688 24.688 0 0 0-.54-.173h-.004c-.182-.054-.364-.103-.545-.152a10.974 10.974 0 0 0-.55-.133c-4.489-1.036-9.819-.525-13.446 1.543-.15.085-.295.174-.436.262a9.97 9.97 0 0 0-.785.547c-.082.067-.164.13-.245.2-.064.054-.132.107-.191.165-.045.035-.09.076-.132.12-.04.036-.081.071-.122.111-.087.085-.168.165-.25.25-.009.013-.018.021-.032.035a7.776 7.776 0 0 0-.268.307.133.133 0 0 1-.022.03 3.333 3.333 0 0 0-.164.214 5.248 5.248 0 0 0-.263.383c-.014.022-.027.049-.04.07a5.663 5.663 0 0 0-.178.32l-.109.228c-.009.03-.023.057-.036.084a7.234 7.234 0 0 0-.1.267c-.005.009-.01.018-.01.027a3.647 3.647 0 0 0-.094.315c-.005.005-.005.01-.005.014-.023.08-.04.16-.05.24l-.014.075v.01c0 .008-.004.017-.004.026-.005.018-.005.04-.005.058-.013.084-.027.164-.031.244-.01.098-.014.196-.014.298v.16c0 .08.005.165.014.245v.022c.009.089.018.182.036.271 0 .014 0 .023.004.036v.009c0 .013 0 .03.01.049a.864.864 0 0 0 .027.142c.009.049.018.098.031.147 0 .013.01.03.014.044.018.076.041.151.068.227.01.022.014.04.023.062a4.969 4.969 0 0 0 .717 1.348c.064.088.132.182.204.27l.014.014c.041.053.086.102.132.151.023.031.05.058.077.09a.79.79 0 0 0 .054.061h.005a.5.5 0 0 0 .036.045c.032.031.064.062.091.093.055.058.109.111.168.165.104.102.213.2.331.298a9.469 9.469 0 0 0 1.053.778l.232.147c.105.062.209.124.318.186 2.724 1.543 6.396 2.215 9.942 2.028.386-.022.772-.049 1.157-.093a19.46 19.46 0 0 0 2.252-.37c.191-.04.381-.088.568-.133.186-.049.363-.098.544-.151.45-.129.89-.28 1.317-.445.113-.044.231-.089.34-.138.504-.209.981-.44 1.435-.698.15-.084.295-.173.436-.262.308-.191.59-.391.853-.605.064-.044.127-.098.186-.147.037-.026.068-.057.1-.084h.005s.009-.013.018-.018c0-.004.009-.009.013-.017a.318.318 0 0 0 .059-.05c.041-.035.082-.07.123-.115.145-.129.282-.262.404-.4.095-.103.182-.2.263-.303h.005c.073-.089.141-.178.2-.266.018-.018.027-.031.041-.05a.69.69 0 0 0 .049-.08c.032-.044.059-.088.087-.133.013-.018.027-.035.036-.053.009-.014.018-.031.032-.049.027-.044.054-.089.086-.138.014-.027.032-.058.045-.089.019-.03.037-.067.055-.098h.004c.055-.106.105-.213.15-.32h.005c.013-.04.027-.075.041-.11.004-.019.009-.032.013-.045.028-.063.05-.112.068-.174v-.009l.019-.058.004-.017c.005-.014.009-.023.009-.036a.184.184 0 0 0 .018-.067c.018-.035.028-.075.037-.11 0-.018.009-.032.009-.05.004-.008.009-.017.009-.026.013-.045.023-.094.032-.138.009-.05.022-.098.031-.151v-.018s.005-.022.005-.036l.014-.07.013-.12c.009-.068.018-.139.018-.21v-.035s.005-.014.005-.018v-.054c.004-.035.004-.07.004-.106l-.004-.005ZM96.296 40.595s.004-.022 0-.031c0-.009 0-.018-.005-.027a.334.334 0 0 0-.05-.116c-.004-.004-.004-.008-.009-.013l-.013-.017a.22.22 0 0 0-.055-.058c-.005 0-.014-.01-.018-.014-.01-.008-.018-.013-.027-.022a.793.793 0 0 0-.091-.062l-4.54-2.57-8.82-4.99c-.364-.204-.95-.204-1.312 0l-42.442 24.16c-.177.102-.268.235-.268.369 0 .013 0 .031.005.049 0 .009.004.018.004.026h.005v.01s.005.013.005.022c.009.022.018.044.036.066 0 0 .004.014.013.023.005.004.01.008.01.013 0 .004.004 0 .004.009l.01.009s.013.017.022.022a.495.495 0 0 0 .118.098c.009.009.018.013.032.022l.004.004 13.365 7.56c.363.204.949.204 1.312 0l27.71-15.777 1.312-.747 8.853-5.038 4.557-2.592h.005c.032-.022.059-.04.086-.062h.005l.027-.027s.018-.013.023-.022a.425.425 0 0 0 .063-.067c.018-.031.037-.062.046-.093l.013-.054v-.062h.005Z"/><path fill="#161A39" d="M203.387 60.533c.022-.115.045-.235.063-.351.027-.165.055-.334.073-.498.027-.187.05-.373.063-.56.014-.116.019-.236.028-.352.013-.12.018-.24.022-.36.009-.182.014-.369.014-.551l-.1 34.856c-.018 6.301-4.245 12.588-12.688 17.395l-57.927 32.971c-16.992 9.676-44.634 9.676-61.74 0l-58.307-32.971C4.281 105.243-.018 98.854 0 92.477l.104-34.812c0 1.792.34 3.584 1.026 5.34a16.672 16.672 0 0 0 .232.574 18.524 18.524 0 0 0 1.966 3.442c.131.186.272.373.413.56a25.81 25.81 0 0 0 3.614 3.77c.399.347.821.69 1.257 1.023a35.63 35.63 0 0 0 2.824 1.952 45.95 45.95 0 0 0 1.557.93l58.303 32.971c.24.138.485.271.73.4.096.053.191.107.291.156.064.035.127.071.19.102.005.004.014.004.019.009.34.178.68.355 1.03.524.232.116.468.232.704.338.318.152.636.298.962.441.178.08.355.16.536.235.055.027.114.054.168.076h.005c.054.022.1.044.154.067l.036.013c.091.04.191.08.286.12.096.04.191.08.286.116.214.093.432.177.65.262.208.084.417.164.63.244.173.067.35.129.532.196l.009.005c.045.017.09.031.136.048l.036.014a45.864 45.864 0 0 0 1.62.556 49.71 49.71 0 0 0 1.58.498l.046.013a62.876 62.876 0 0 0 1.852.516c.028.009.05.018.078.022.285.076.572.147.858.218l.708.173.118.027c.2.044.408.093.613.138.276.062.553.124.83.182l.195.04c.391.085.777.16 1.172.231.009 0 .023.005.032.005.43.084.867.16 1.302.235.037.005.069.014.105.018a50.69 50.69 0 0 0 1.221.191c.068.009.14.023.209.032.404.062.813.115 1.226.169h.018c.463.062.93.12 1.398.169l.894.093c.114.009.232.022.345.031.168.018.332.031.495.044.159.014.318.032.477.04.163.014.322.027.481.036.09.009.177.018.268.022h.009c.05 0 .09.009.14.009.45.031.904.058 1.353.08.473.027.945.045 1.417.058h.146c.158.009.321.009.485.013h.159c.204.005.413.009.622.009.372.009.744.009 1.116.009.327 0 .654 0 .981-.009.222 0 .445-.004.667-.013.295-.005.59-.013.881-.022.295-.009.59-.023.881-.036l.83-.04a67.485 67.485 0 0 0 1.698-.116l.795-.066c.413-.036.826-.076 1.235-.12.413-.045.826-.089 1.234-.143.132-.013.259-.031.391-.048h.013l.109-.014a14.9 14.9 0 0 1 .209-.026c.046-.005.091-.014.136-.018.245-.036.486-.067.727-.103.186-.026.372-.053.558-.084.277-.04.549-.085.826-.129.427-.071.854-.147 1.276-.222.277-.054.549-.103.822-.16.227-.04.454-.089.676-.138a55.364 55.364 0 0 0 1.489-.325 33.77 33.77 0 0 0 1.14-.275c.245-.058.49-.121.73-.187.323-.085.645-.169.963-.263.322-.089.64-.177.953-.275.277-.08.549-.165.822-.249l.122-.04c.314-.098.627-.2.936-.307.308-.102.617-.209.921-.316.227-.08.454-.164.677-.244.399-.147.794-.303 1.189-.458a62.124 62.124 0 0 0 1.707-.716c.29-.125.576-.258.862-.392a36.5 36.5 0 0 0 .718-.337h.004l.327-.161c.109-.053.218-.111.327-.164.168-.085.336-.169.499-.258.486-.249.963-.507 1.43-.774l57.927-32.97c.426-.245.839-.49 1.243-.743a34.087 34.087 0 0 0 2.302-1.543c.182-.13.359-.263.536-.396.177-.133.349-.267.517-.405.168-.133.336-.266.5-.4.004-.004.013-.009.018-.018.159-.133.318-.266.472-.4a25.886 25.886 0 0 0 1.784-1.685c.136-.142.272-.285.404-.431.268-.285.522-.578.763-.872a19.752 19.752 0 0 0 2.024-2.9 16.69 16.69 0 0 0 1.158-2.449c.054-.142.104-.285.15-.427.077-.213.145-.427.209-.64.09-.311.172-.618.24-.925.005-.009.005-.018.005-.022.032-.143.063-.28.091-.423.004-.013.004-.03.009-.044v.004Z"/><path stroke="#000213" stroke-linecap="round" stroke-linejoin="round" d="M93.649 24.187c.082-.07.163-.133.245-.2a10.17 10.17 0 0 1 1.221-.809c3.627-2.068 8.957-2.579 13.447-1.547a20.006 20.006 0 0 1 1.094.289h.004a23.227 23.227 0 0 1 .541.173c.177.058.349.12.522.182.172.067.34.134.504.2h.004c.336.143.658.294.976.454a11.251 11.251 0 0 1 1.321.787c.268.187.518.378.745.574a7.486 7.486 0 0 1 .626.6 1.474 1.474 0 0 1 .141.16c.045.049.086.098.132.151v.005c.086.102.163.204.24.31a.833.833 0 0 0 .055.085c.059.076.113.16.163.24.045.076.091.152.132.232a.93.93 0 0 1 .05.093 4.752 4.752 0 0 1 .39.996 2.7 2.7 0 0 1 .055.258l.027.164.013.103c.005.022.005.04.005.062 0 .027 0 .058.009.08v.022a.437.437 0 0 1 .009.08v.01c.005.066.005.128.005.195.004.018.004.04.004.062 0 .036 0 .071-.004.107v.053s0 .014-.005.018v.035c0 .072-.009.143-.018.21l-.014.12-.013.07c0 .014-.005.023-.005.036v.018c-.009.053-.023.102-.032.151-.009.045-.018.094-.031.138 0 .009-.005.018-.01.027 0 .017-.004.03-.009.049-.009.035-.018.075-.036.11a.184.184 0 0 1-.018.067c0 .014-.005.023-.009.036 0 .005-.005.013-.005.018a.257.257 0 0 1-.018.058v.009c-.018.062-.041.11-.068.173l-.014.044-.04.107h-.005a3.889 3.889 0 0 1-.15.325h-.004c-.018.03-.037.067-.055.098-.013.03-.032.062-.045.088a4.726 4.726 0 0 0-.086.138c-.014.018-.023.036-.032.05-.009.017-.023.035-.037.053-.027.044-.054.089-.086.133-.013.027-.032.053-.05.08-.013.018-.022.031-.041.049a2.765 2.765 0 0 1-.199.262h-.005a4.256 4.256 0 0 1-.263.307 4.946 4.946 0 0 1-.404.4c-.041.045-.082.08-.123.116a.314.314 0 0 1-.059.049c0 .009-.013.013-.013.018-.009.004-.009.008-.019.017h-.004c-.032.027-.064.058-.1.085a3.336 3.336 0 0 1-.186.147 8.171 8.171 0 0 1-.854.604 9.64 9.64 0 0 1-.435.263c-.454.258-.931.489-1.435.698-.109.049-.227.093-.34.138a15.9 15.9 0 0 1-1.317.444 14.98 14.98 0 0 1-.545.151c-.186.045-.376.094-.567.134-.731.164-1.485.289-2.252.369-.386.044-.772.071-1.157.093-3.546.187-7.218-.484-9.942-2.027-.11-.063-.214-.125-.318-.187l-.232-.147a9.424 9.424 0 0 1-1.053-.778 5.355 5.355 0 0 1-.331-.298 2.93 2.93 0 0 1-.168-.164c-.027-.031-.06-.063-.09-.094a.143.143 0 0 1-.037-.044h-.005l-.054-.062c-.028-.032-.055-.058-.078-.09a2.11 2.11 0 0 1-.131-.15l-.014-.014a5.288 5.288 0 0 1-.204-.271c-.014-.014-.023-.027-.032-.04a4.968 4.968 0 0 1-.685-1.307c-.01-.023-.014-.04-.023-.063a2.17 2.17 0 0 1-.068-.227l-.014-.044a1.703 1.703 0 0 1-.031-.147.864.864 0 0 1-.028-.142c-.009-.018-.009-.035-.009-.049v-.009c-.004-.013-.004-.022-.004-.035-.019-.09-.028-.183-.037-.272v-.022a2.202 2.202 0 0 1-.013-.244v-.16c0-.103.004-.2.013-.298 0-.08.019-.16.032-.245 0-.018 0-.04.005-.058 0-.009.004-.017.004-.026v-.01c.005-.026.01-.048.014-.075.009-.08.027-.16.05-.24 0 0 0-.009.004-.013a3.993 3.993 0 0 1 .105-.343c.031-.089.063-.178.1-.266a.481.481 0 0 0 .036-.085l.109-.227c.054-.107.113-.213.177-.32.014-.022.027-.049.04-.071.082-.129.169-.258.264-.382.05-.072.105-.143.163-.214a.133.133 0 0 0 .023-.031 7.776 7.776 0 0 1 .268-.307 12.761 12.761 0 0 1 .281-.285c.041-.04.082-.075.123-.11a.93.93 0 0 1 .132-.12c.059-.058.127-.112.19-.165l.005.004Zm2.642 16.377s0-.018-.005-.027a.333.333 0 0 0-.05-.116c-.004-.004-.004-.008-.009-.013l-.013-.017a.22.22 0 0 0-.055-.058c-.004 0-.013-.01-.018-.014-.009-.008-.018-.013-.027-.022a.784.784 0 0 0-.09-.062l-4.54-2.57-8.821-4.99c-.363-.204-.949-.204-1.312 0l-42.442 24.16c-.177.102-.267.235-.267.369 0 .013 0 .031.004.049 0 .009.005.018.005.026h.004v.01s.005.013.005.022a.238.238 0 0 0 .036.066s.005.014.014.023c.004.004.009.008.009.013 0 .004.004 0 .004.009l.01.009a.1.1 0 0 0 .022.022.564.564 0 0 0 .118.098c.01.009.018.013.032.022l.004.004 13.365 7.56c.363.204.949.204 1.312 0l27.71-15.777 1.312-.747 8.853-5.038 4.558-2.592h.004c.032-.022.06-.04.086-.062h.005l.027-.027s.018-.013.023-.022c.027-.022.045-.045.063-.067a.438.438 0 0 0 .046-.093l.013-.054v-.062s.005-.022 0-.031h.005Zm-6.115 43.972a1.696 1.696 0 0 0-.25.525.598.598 0 0 0-.022.093v.013a1.584 1.584 0 0 0-.023.254c0 .075.01.151.018.227l.005.008c0 .032.009.067.018.098.009.036.023.076.036.111 0 .01.005.014.01.023a1.525 1.525 0 0 0 .217.418c.127.178.295.351.504.507a.85.85 0 0 0 .127.093l.037.027c.031.022.068.044.1.062.036.027.077.049.117.071a.093.093 0 0 0 .028.018h.004l2.474 1.4 3.165 1.792 3.164 1.788c1.611.912 4.249.912 5.851 0l5.689-3.237.907-.516h.005l1.861-1.063.227-.129.881-.502.086-.049 2.066-1.174 13.069-7.439c.232-.129.454-.262.672-.396.218-.129.432-.262.64-.395.069-.04.137-.085.205-.13.318-.204.622-.408.912-.617.223-.156.436-.312.64-.472.105-.075.205-.155.304-.235.141-.107.273-.218.405-.325.09-.076.181-.151.267-.227.014-.013.028-.022.041-.035.014-.01.027-.023.041-.036.064-.053.127-.111.191-.169.081-.071.154-.142.231-.209.068-.062.132-.124.195-.187l.2-.195c.091-.09.177-.183.264-.272.072-.07.136-.137.199-.209.023-.026.041-.048.064-.07.086-.094.172-.192.254-.285a10.48 10.48 0 0 0 .908-1.192c.004-.004.009-.004.009-.009a9.25 9.25 0 0 0 .245-.391c.118-.191.223-.378.318-.57a6.222 6.222 0 0 0 .29-.623c.014-.025.023-.052.032-.079.05-.115.091-.235.136-.351 0-.009.005-.013.005-.018.009-.022.014-.044.023-.062l.027-.08c.036-.12.073-.236.104-.351.005-.01.005-.018.009-.027.019-.067.037-.133.05-.2l.041-.165.027-.142c.023-.107.041-.218.059-.325.014-.093.028-.182.037-.27.009-.072.018-.148.022-.219 0-.017.005-.035.005-.053.009-.151.018-.294.018-.45v-.061c0-.107-.004-.214-.009-.32a5.939 5.939 0 0 0-.077-.743 1.972 1.972 0 0 0-.023-.151c-.013-.085-.032-.165-.05-.245a2.442 2.442 0 0 0-.063-.262c0-.01 0-.018-.005-.027 0-.009-.004-.018-.004-.022a5.336 5.336 0 0 0-.078-.267l-.054-.178c-.014-.035-.023-.07-.036-.107l-.068-.2h-.005a4.582 4.582 0 0 0-.118-.306h-.005a2.503 2.503 0 0 0-.09-.214l-.046-.098a5.955 5.955 0 0 0-.19-.378l-.014-.026-.023-.036a5.88 5.88 0 0 0-.236-.418c-.004-.013-.013-.026-.022-.04-.059-.093-.118-.191-.182-.284h-.005v-.01a1.276 1.276 0 0 0-.072-.102c-.037-.062-.082-.12-.123-.177h-.004s0-.005-.005-.01l-.204-.28a13.409 13.409 0 0 0-.654-.778c-.009-.008-.013-.017-.027-.026-.005-.005-.005-.014-.014-.018l-.013-.018h-.005s0-.004-.004-.009a12.806 12.806 0 0 0-.527-.533 7.687 7.687 0 0 0-.277-.267v-.009c-.05-.04-.1-.084-.15-.129a12.98 12.98 0 0 0-.722-.61.224.224 0 0 0-.036-.026 8.346 8.346 0 0 0-.322-.249h-.005s-.004-.009-.009-.013c-.109-.076-.213-.156-.322-.231a18.57 18.57 0 0 0-1.003-.672c-.023-.018-.05-.031-.078-.049a32.221 32.221 0 0 0-.758-.449c-.249-.138-.499-.28-.758-.409-.004-.004-.009-.004-.013-.009a9.523 9.523 0 0 1-.236-.124 24.504 24.504 0 0 0-.464-.223l-.136-.066s-.032-.014-.045-.023a39.346 39.346 0 0 0-.404-.186c-.046-.018-.086-.04-.132-.058a5.596 5.596 0 0 0-.34-.147c-.014-.009-.032-.013-.046-.022a8.182 8.182 0 0 0-.417-.173c-.028-.01-.055-.023-.082-.032a.264.264 0 0 0-.055-.022c-.031-.018-.068-.031-.099-.044-.037-.014-.068-.027-.105-.04-.027-.01-.059-.023-.086-.031-.027-.014-.055-.023-.082-.032a8.82 8.82 0 0 0-.463-.177.888.888 0 0 0-.118-.045 4.277 4.277 0 0 0-.141-.053c-.009-.005-.018-.005-.027-.01a6.648 6.648 0 0 0-.286-.097 2.99 2.99 0 0 0-.145-.053 1.282 1.282 0 0 0-.141-.05c-.004 0-.009-.004-.013-.004a25.6 25.6 0 0 0-.822-.262c-.154-.049-.313-.093-.468-.138a.085.085 0 0 0-.045-.013 7.835 7.835 0 0 0-.422-.12c-.055-.018-.109-.031-.168-.05-.091-.021-.182-.048-.273-.07a27.046 27.046 0 0 0-.867-.218c-.022-.005-.045-.01-.068-.018a.915.915 0 0 0-.109-.022 2.11 2.11 0 0 0-.24-.054c-.059-.017-.118-.026-.177-.04l-.114-.026c-.05-.01-.095-.023-.145-.032l-.068-.013c-.105-.022-.209-.044-.314-.062l-.131-.027c-.114-.026-.227-.044-.345-.066a15.53 15.53 0 0 0-.214-.04c-.013-.005-.031-.005-.045-.01a14.654 14.654 0 0 0-.431-.07c-.032-.005-.059-.014-.091-.018-.05-.01-.1-.018-.145-.023-.096-.017-.191-.03-.282-.044-.013 0-.022-.004-.036-.004-.014-.005-.032-.005-.045-.01a8.433 8.433 0 0 1-.332-.048c-.018-.005-.041-.005-.059-.01-.145-.017-.286-.04-.431-.053-.05-.008-.1-.013-.15-.017a10.89 10.89 0 0 0-.536-.067c-.054-.004-.104-.013-.159-.018-.226-.022-.453-.049-.68-.066l-.137-.014a32.872 32.872 0 0 0-.948-.067c-.028-.004-.055-.004-.082-.008h-.114c-.045-.005-.09-.005-.136-.005a5.478 5.478 0 0 0-.268-.018c-.036 0-.072-.004-.109-.004h-.027c-.181-.009-.363-.013-.54-.018h-.027a21.79 21.79 0 0 0-.758-.013c-.105-.005-.214-.005-.318-.005h-.295c-.186 0-.377.005-.563.01h-.046c-.04 0-.081 0-.122.004-.195.004-.391.009-.586.017h-.009c-.113.005-.231.014-.345.018-.259.014-.513.031-.772.05l1.839-1.046.027-.017a3.45 3.45 0 0 0 .495-.343 2.09 2.09 0 0 0 .095-.084c.032-.032.064-.058.091-.09.05-.048.095-.097.136-.15.014-.018.032-.036.046-.058.013-.014.022-.031.036-.05.032-.044.059-.093.086-.137a1.23 1.23 0 0 0 .082-.156l.041-.093c.009-.031.023-.062.032-.098.018-.058.027-.111.04-.169 0-.013.005-.031.005-.049v-.009a.908.908 0 0 0 .014-.155v-.01c0-.04 0-.075-.005-.115 0-.013-.004-.022-.004-.035v-.01a.89.89 0 0 0-.028-.15.675.675 0 0 0-.041-.143l-.004-.009-.027-.08a.92.92 0 0 0-.037-.075l-.027-.058c-.009-.022-.023-.04-.032-.062-.031-.054-.068-.107-.1-.156-.009-.009-.013-.018-.018-.022a2.929 2.929 0 0 0-.109-.138.5.5 0 0 1-.045-.049 2.387 2.387 0 0 0-.327-.298 3.57 3.57 0 0 0-.413-.271l-5.802-3.282-3-1.698c-.809-.454-1.871-.685-2.929-.685-.104 0-.208 0-.317.009-.077 0-.15 0-.227.013h-.009a2.245 2.245 0 0 0-.182.018 3.466 3.466 0 0 0-.309.04 6.73 6.73 0 0 0-.885.187c-.113.031-.222.071-.327.107-.009.004-.018.008-.022.008-.028.014-.055.023-.082.036a.937.937 0 0 0-.155.067.795.795 0 0 1-.072.03.401.401 0 0 0-.077.036 2.9 2.9 0 0 0-.264.134L96.287 47.5l-.268.151h-.01l-4.557 2.597-8.848 5.038-1.312.747L61.73 67.168a2.476 2.476 0 0 0-.235.147.641.641 0 0 0-.069.049.995.995 0 0 0-.072.053c-.041.031-.082.062-.118.093-.023.018-.046.04-.068.058l-.069.062a1.96 1.96 0 0 0-.186.205 1.299 1.299 0 0 0-.15.213c-.008.014-.018.027-.022.04a.794.794 0 0 0-.077.151c-.023.05-.041.098-.06.143l-.04.146c-.005.023-.01.045-.01.067-.008.027-.008.053-.013.08v.067c-.004.027-.004.049-.004.075v.01a.356.356 0 0 0 0 .097v.01a.714.714 0 0 0 .018.101v.027c0 .013.004.031.009.044.004.018.009.04.018.058a.511.511 0 0 0 .032.111 1.523 1.523 0 0 0 .181.37 1.713 1.713 0 0 0 .254.316c.01.013.023.026.037.035.023.026.05.053.077.075.014.014.027.027.04.036l.015.013c.036.036.077.067.118.098.054.04.113.085.177.125.063.044.136.089.209.129.008.009.018.013.027.017l7.19 4.064 1.617.916a4.897 4.897 0 0 0 1.003.418c.24.072.49.13.744.17h.028a1.4 1.4 0 0 0 .2.026c.013.009.031.009.05.009.008.005.017.005.022 0h.005a.361.361 0 0 0 .1.013h.058a.46.46 0 0 0 .11.014h.08c.064.009.127.013.19.013a5.88 5.88 0 0 0 .932-.018h.009c.063-.004.127-.009.19-.017l.087-.014a5.816 5.816 0 0 0 1.044-.209 4.617 4.617 0 0 0 .998-.418l10.06-5.722 6.279-3.575 3.218-1.833h.005l.268-.155.585-.334a12.11 12.11 0 0 1 2.77-1.12c.154-.045.313-.085.472-.125.027-.008.059-.013.09-.022.028-.004.055-.013.082-.018.114-.026.227-.053.341-.075.086-.018.172-.036.258-.05.091-.021.182-.035.273-.053.186-.03.372-.062.558-.084.045-.009.091-.013.132-.018.013 0 .031-.004.045-.004.191-.027.381-.045.572-.063.036-.008.068-.008.105-.013.04-.004.081-.009.122-.009a5.65 5.65 0 0 1 .395-.026c.014-.005.032-.005.045-.005h.096c.022 0 .041-.004.063-.004a5.63 5.63 0 0 1 .391-.014c.159-.008.313-.008.472-.008.245 0 .49.004.731.017.168.005.34.014.508.027h.106c.136.009.272.022.408.035.141.014.277.027.409.045.136.013.272.031.408.053.268.036.536.08.799.134.082.013.164.03.245.049l.069.013.063.013c.186.04.372.085.558.134.182.044.359.093.536.146.023.01.05.014.073.023a13.628 13.628 0 0 1 1.475.547c.118.048.236.106.35.16.1.044.195.093.29.142l.323.173c.127.071.249.147.367.218.109.071.209.138.314.21.099.066.195.137.29.208h.005v.01c.109.075.213.16.313.244.004 0 .004.004.009.004.004.005.005.009.009.009a6.321 6.321 0 0 1 .504.476c.009.009.023.022.032.035l.013.014c.05.053.096.102.141.155a.212.212 0 0 1 .041.054c.009.009.018.013.023.022.004.009.013.013.022.022.023.031.046.058.068.09.005.008.014.017.019.026l.04.053c.028.031.05.067.078.102l.04.058c.041.058.082.12.118.178.01.013.014.022.023.036a3.529 3.529 0 0 1 .173.306c.031.063.059.125.086.183.005.009.004.013.009.022l.014.031c.018.04.036.08.05.12.013.027.018.05.027.071 0 0 .009.018.009.023a.044.044 0 0 1 .004.022l.041.11c.018.054.032.108.046.166.022.075.041.146.05.222a2.671 2.671 0 0 1 .054.342c.014.111.018.218.018.325v.009c0 .08 0 .16-.013.235v.036c-.005.022-.005.049-.009.071a1.801 1.801 0 0 1-.028.218 3.906 3.906 0 0 1-.136.547l-.027.071c0 .004-.005.009-.005.013-.004 0-.004 0-.004.014 0 0-.005.004-.009.004v.009a.26.26 0 0 1-.027.071.89.89 0 0 1-.046.111c0 .014-.014.027-.014.04-.004.01-.009.014-.009.023h-.004c-.018.044-.036.08-.055.12-.013.017-.022.04-.031.057v.014l-.005.009-.15.266a4.775 4.775 0 0 1-.377.52 2.013 2.013 0 0 1-.163.192.603.603 0 0 0-.059.067c-.041.044-.082.084-.123.124-.009.009-.013.018-.022.027a1.08 1.08 0 0 1-.105.102c-.077.071-.154.147-.236.218l-.081.067s-.014.008-.019.017a3.76 3.76 0 0 1-.213.17c-.041.03-.077.062-.118.088l-.005.005a8.271 8.271 0 0 1-.907.596l-6.093 3.468-2.928 1.667-2.932 1.672-2.774 1.574-5.688 3.242a3.338 3.338 0 0 0-.631.462 1.96 1.96 0 0 0-.186.205l-.041.053s-.028.031-.037.05h-.004l-.014.008Z"/><path stroke="#000213" stroke-linecap="round" stroke-linejoin="round" d="M203.65 57.861c.018-6.38-4.281-12.77-12.888-17.635l-58.303-32.97c-17.106-9.677-44.752-9.672-61.744 0l-57.927 32.97c-.526.302-1.04.61-1.534.92a34.573 34.573 0 0 0-3.41 2.437 31.072 31.072 0 0 0-1.747 1.548C2.097 48.986.1 53.326.104 57.665m203.546.196-.1 34.856c-.018 6.301-4.245 12.588-12.688 17.395l-57.927 32.971c-16.992 9.676-44.634 9.676-61.74 0l-58.307-32.971C4.281 105.243-.018 98.854 0 92.477l.104-34.812m203.546.196c0 .182-.005.37-.014.551-.004.12-.009.24-.022.36-.009.116-.014.236-.028.352a7.62 7.62 0 0 1-.063.56c-.018.165-.046.334-.073.498-.018.116-.041.236-.063.351-.005.014-.005.032-.009.045-.028.142-.059.28-.091.422 0 .005 0 .014-.005.023-.068.306-.15.613-.24.924a12.27 12.27 0 0 1-.209.64 9 9 0 0 1-.15.427 16.637 16.637 0 0 1-1.158 2.45 10.6 10.6 0 0 1-.304.512 19.083 19.083 0 0 1-1.72 2.388c-.241.293-.495.587-.763.871a19.198 19.198 0 0 1-.826.858c-.431.427-.885.85-1.362 1.259a39.47 39.47 0 0 1-.472.4c-.005.009-.014.013-.018.018-.164.133-.332.267-.5.4a22.453 22.453 0 0 1-1.053.8 34.087 34.087 0 0 1-2.302 1.543 36.93 36.93 0 0 1-1.243.743l-57.927 32.971c-.467.267-.944.525-1.43.774-.163.088-.331.173-.499.257-.109.054-.218.112-.327.165l-.327.16h-.004c-.236.116-.477.227-.718.338-.286.133-.572.267-.862.391-.236.107-.472.209-.713.307a47.849 47.849 0 0 1-2.183.867c-.223.08-.45.165-.677.245a62.18 62.18 0 0 1-.921.315c-.309.107-.622.209-.936.307l-.122.04c-.273.085-.545.169-.822.249-.313.098-.631.187-.953.276-.318.093-.64.178-.963.262-.24.067-.485.129-.73.187-.377.098-.759.191-1.14.276-.263.062-.522.12-.785.178-.232.053-.468.102-.704.146-.222.049-.449.098-.676.138-.273.058-.545.107-.822.16-.422.076-.849.151-1.276.223-.277.044-.549.088-.826.129-.186.031-.372.057-.558.084-.241.036-.482.067-.727.102-.045 0-.09.014-.136.018l-.209.027-.109.013h-.013c-.132.018-.259.036-.391.049-.408.053-.821.098-1.234.142-.409.045-.822.085-1.235.12l-.795.067c-.563.044-1.13.085-1.698.116l-.83.04a62.356 62.356 0 0 1-1.762.057 16.49 16.49 0 0 1-.667.014c-.327.004-.654.009-.981.009-.372 0-.744 0-1.116-.009-.209 0-.418-.005-.622-.009h-.159c-.164-.005-.327-.005-.486-.013h-.145a55.889 55.889 0 0 1-1.417-.058 68.058 68.058 0 0 1-1.352-.08c-.05 0-.091-.005-.141-.009h-.01c-.09-.005-.176-.014-.267-.022-.159-.009-.318-.023-.481-.036-.16-.009-.318-.027-.477-.04a22.94 22.94 0 0 1-.495-.044c-.113-.009-.231-.023-.345-.032l-.894-.093a49.219 49.219 0 0 1-1.398-.169h-.018a50.31 50.31 0 0 1-1.226-.169c-.068-.009-.14-.022-.209-.031-.01 0-.018 0-.027-.004-.4-.058-.8-.121-1.194-.187-.037-.005-.068-.014-.105-.018-.435-.076-.871-.151-1.302-.236-.01 0-.023-.004-.032-.004a34.609 34.609 0 0 1-1.171-.231l-.196-.04c-.277-.058-.553-.12-.83-.183-.205-.044-.413-.093-.613-.138-.041-.008-.078-.017-.118-.026l-.709-.174c-.285-.071-.572-.142-.857-.217-.028-.005-.05-.014-.078-.023-.313-.08-.626-.164-.94-.253a84.207 84.207 0 0 1-.912-.263c-.014-.004-.032-.008-.045-.013a49.693 49.693 0 0 1-1.58-.498 45.69 45.69 0 0 1-1.62-.556l-.037-.013c-.045-.018-.09-.031-.136-.049l-.01-.004c-.18-.067-.358-.129-.53-.196-.214-.08-.423-.16-.632-.245a16.29 16.29 0 0 1-.649-.262c-.095-.036-.19-.076-.286-.116-.095-.04-.195-.08-.286-.12-.013 0-.022-.008-.036-.013-.054-.022-.1-.044-.154-.067h-.005a3.122 3.122 0 0 1-.168-.075 20.712 20.712 0 0 1-.535-.236 31.189 31.189 0 0 1-.963-.44 20.193 20.193 0 0 1-.704-.338c-.35-.169-.69-.347-1.03-.525-.005-.004-.014-.004-.018-.009a3.537 3.537 0 0 1-.19-.102 5.508 5.508 0 0 1-.291-.156c-.246-.128-.49-.262-.731-.4L12.993 75.256a45.785 45.785 0 0 1-1.558-.93 35.63 35.63 0 0 1-2.823-1.951 26.354 26.354 0 0 1-1.258-1.023 25.811 25.811 0 0 1-3.613-3.77 22.1 22.1 0 0 1-.413-.561 18.524 18.524 0 0 1-1.998-3.513 16.574 16.574 0 0 1-.2-.502 14.622 14.622 0 0 1-1.026-5.34"/></svg>